<?xml version="1.0" encoding="UTF-8"?><svg id="b" xmlns="http://www.w3.org/2000/svg" viewBox="0 0 460.86 163.39"><g id="c"><g><path d="m192.19,113.27h-69.01V1.72h68.31v16.59h-49.17v30.24h39.53v16.18h-39.53v31.22h49.87v17.33Z" fill="#e5ea72"/><path d="m66.43,113.81h-20v-55.85H0V1.18h113.56v56.79h-47.13v55.85Z" fill="#e5ea72"/><path d="m201.81,86.38l18.59-4.17c2.23,11.06,10.79,16.59,25.68,16.59,6.79,0,12.02-1.42,15.68-4.25,3.66-2.83,5.49-6.35,5.49-10.54,0-3.05-.83-5.87-2.49-8.46-1.66-2.59-5.21-4.62-10.66-6.09l-20.31-5.56c-6.95-1.91-12.09-4.07-15.4-6.5-3.32-2.42-5.98-5.84-7.98-10.26-2-4.41-3-9.12-3-14.14,0-9.97,3.53-17.97,10.58-23.99,7.05-6.02,16.08-9.03,27.08-9.03,9.13,0,17.29,2.1,24.47,6.29,7.18,4.2,11.76,10.13,13.73,17.82l-18.21,4.74c-2.8-8.44-9.34-12.67-19.61-12.67-5.97,0-10.52,1.31-13.65,3.92-3.14,2.62-4.71,5.94-4.71,9.97,0,6.37,4.93,10.84,14.78,13.4l18.05,4.74c10.94,2.89,18.29,7.15,22.02,12.79,3.73,5.64,5.6,11.86,5.6,18.67,0,10.95-3.93,19.57-11.79,25.87-7.86,6.29-18.04,9.44-30.54,9.44-10.53,0-19.75-2.32-27.66-6.95-7.91-4.63-13.16-11.85-15.76-21.66Z" fill="#e5ea72"/><path d="m345.95,113.27h-20.54V18.96h-28.24V1.72h77.03v17.24h-28.24v94.31Z" fill="#e5ea72"/><g><path d="m25.98,48.15h-7.04V15.83h-9.68v-5.91h26.4v5.91h-9.68v32.32Z" fill="#00a2a2"/><path d="m71.66,48.15h-6.56v-16.61h-13.89v16.61h-6.56V9.92h6.56v15.71h13.89v-15.71h6.56v38.23Z" fill="#00a2a2"/><path d="m104.29,48.15h-23.65V9.92h23.41v5.69h-16.85v10.36h13.55v5.55h-13.55v10.7h17.09v5.94Z" fill="#00a2a2"/></g><g><path d="m206.1,145.17c.84-.48,1.79-.72,2.86-.72,1.15,0,2.18.27,3.09.81s1.63,1.31,2.16,2.29c.53.98.79,2.13.79,3.43s-.26,2.43-.79,3.44c-.53,1.01-1.25,1.79-2.17,2.35-.92.56-1.95.84-3.08.84s-2.06-.24-2.89-.72c-.83-.48-1.45-1.09-1.87-1.84v2.35h-2.11v-17.2h2.11v6.83c.43-.76,1.07-1.38,1.91-1.86Zm6.16,3.3c-.39-.71-.91-1.25-1.57-1.63-.66-.37-1.38-.56-2.17-.56s-1.49.19-2.15.57c-.66.38-1.19.93-1.58,1.65-.4.72-.59,1.55-.59,2.5s.2,1.8.59,2.52c.4.72.92,1.27,1.58,1.65.66.38,1.37.57,2.15.57s1.51-.19,2.17-.57c.66-.38,1.18-.93,1.57-1.65.39-.72.58-1.57.58-2.54s-.19-1.8-.58-2.51Z" fill="#f4f7fa"/><path d="m228.76,144.66l-7.67,18.73h-2.18l2.51-6.13-5.14-12.6h2.35l4,10.32,3.95-10.32h2.18Z" fill="#f4f7fa"/><path d="m246.71,142.19c1.29.66,2.29,1.6,2.97,2.82.69,1.22,1.03,2.66,1.03,4.32s-.35,3.09-1.03,4.31c-.69,1.22-1.68,2.15-2.97,2.79-1.29.64-2.82.96-4.59.96h-5.04v-16.2h5.04c1.77,0,3.3.33,4.59.99Zm.2,11.81c1.1-1.11,1.65-2.66,1.65-4.66s-.55-3.59-1.66-4.72c-1.11-1.13-2.7-1.7-4.78-1.7h-2.93v12.73h2.93c2.09,0,3.69-.55,4.79-1.66Z" fill="#f4f7fa"/><path d="m253.51,147.56c.53-.98,1.25-1.75,2.17-2.29.92-.54,1.95-.81,3.08-.81s2.08.24,2.9.72c.82.48,1.43,1.08,1.84,1.81v-2.32h2.14v12.74h-2.14v-2.37c-.42.74-1.04,1.36-1.87,1.85s-1.79.73-2.89.73-2.15-.28-3.07-.84c-.91-.56-1.63-1.34-2.16-2.35-.53-1.01-.79-2.15-.79-3.44s.26-2.44.79-3.43Zm9.41.94c-.39-.71-.91-1.26-1.57-1.64-.66-.38-1.38-.57-2.17-.57s-1.51.19-2.16.56c-.65.37-1.17.91-1.56,1.63-.39.71-.58,1.55-.58,2.51s.19,1.82.58,2.54c.39.72.91,1.27,1.56,1.65.65.38,1.37.57,2.16.57s1.51-.19,2.17-.57c.66-.38,1.18-.93,1.57-1.65.39-.72.58-1.56.58-2.52s-.19-1.8-.58-2.51Z" fill="#f4f7fa"/><path d="m279.19,145.84c.96.94,1.44,2.29,1.44,4.05v7.51h-2.09v-7.2c0-1.27-.32-2.24-.95-2.92s-1.5-1.01-2.6-1.01-2,.35-2.66,1.05c-.66.7-.99,1.71-.99,3.04v7.04h-2.11v-12.74h2.11v1.81c.42-.65.99-1.15,1.71-1.51.72-.36,1.51-.54,2.38-.54,1.55,0,2.8.47,3.76,1.41Z" fill="#f4f7fa"/><path d="m284.16,142.18c-.28-.28-.42-.62-.42-1.02s.14-.74.42-1.02c.28-.28.62-.42,1.02-.42s.72.14.99.42c.27.28.41.62.41,1.02s-.14.74-.41,1.02c-.27.28-.6.42-.99.42s-.74-.14-1.02-.42Zm2.04,2.49v12.74h-2.12v-12.74h2.12Z" fill="#f4f7fa"/><path d="m301.36,151.82h-10.18c.08,1.25.51,2.23,1.29,2.94s1.73,1.06,2.85,1.06c.91,0,1.68-.21,2.29-.64.61-.43,1.04-.99,1.29-1.71h2.28c-.34,1.22-1.02,2.22-2.04,2.99s-2.29,1.15-3.81,1.15c-1.21,0-2.29-.27-3.24-.81-.95-.54-1.7-1.31-2.24-2.31-.54-1-.81-2.16-.81-3.47s.26-2.47.79-3.46c.53-.99,1.27-1.76,2.22-2.29.95-.54,2.05-.8,3.29-.8s2.28.26,3.21.79c.93.53,1.65,1.25,2.15,2.17s.76,1.96.76,3.13c0,.4-.02.83-.07,1.28Zm-2.65-3.8c-.36-.58-.84-1.02-1.45-1.33-.61-.3-1.29-.45-2.03-.45-1.07,0-1.98.34-2.73,1.02-.75.68-1.18,1.63-1.29,2.83h8.04c0-.81-.18-1.5-.54-2.08Z" fill="#f4f7fa"/><path d="m306.33,140.2v17.2h-2.12v-17.2h2.12Z" fill="#f4f7fa"/><path d="m316.42,145.02c.71-1.26,1.68-2.25,2.92-2.96,1.23-.71,2.6-1.07,4.1-1.07,1.77,0,3.31.43,4.62,1.28,1.32.85,2.28,2.06,2.88,3.62h-2.53c-.45-.98-1.1-1.73-1.94-2.25-.84-.53-1.86-.79-3.03-.79s-2.15.26-3.04.79c-.9.53-1.6,1.27-2.11,2.24-.51.97-.77,2.1-.77,3.4s.26,2.41.77,3.38c.51.97,1.22,1.72,2.11,2.24s1.91.79,3.04.79,2.19-.26,3.03-.78c.84-.52,1.49-1.27,1.94-2.24h2.53c-.6,1.55-1.57,2.75-2.88,3.59-1.32.84-2.86,1.27-4.62,1.27-1.5,0-2.87-.35-4.1-1.06-1.23-.7-2.2-1.68-2.92-2.94-.71-1.25-1.07-2.67-1.07-4.25s.36-3,1.07-4.26Z" fill="#f4f7fa"/><path d="m334.08,147.56c.53-.98,1.25-1.75,2.17-2.29s1.95-.81,3.08-.81,2.08.24,2.91.72,1.43,1.08,1.84,1.81v-2.32h2.14v12.74h-2.14v-2.37c-.42.74-1.04,1.36-1.87,1.85s-1.79.73-2.89.73-2.15-.28-3.07-.84c-.91-.56-1.63-1.34-2.16-2.35s-.79-2.15-.79-3.44.26-2.44.79-3.43Zm9.41.94c-.39-.71-.91-1.26-1.57-1.64-.66-.38-1.38-.57-2.17-.57s-1.51.19-2.16.56c-.65.37-1.17.91-1.56,1.63-.39.71-.58,1.55-.58,2.51s.19,1.82.58,2.54c.39.72.91,1.27,1.56,1.65.65.38,1.37.57,2.16.57s1.51-.19,2.17-.57c.66-.38,1.18-.93,1.57-1.65.39-.72.58-1.56.58-2.52s-.19-1.8-.58-2.51Z" fill="#f4f7fa"/><path d="m354.53,155.45l3.95-10.78h2.25l-5,12.74h-2.46l-5-12.74h2.28l3.97,10.78Z" fill="#f4f7fa"/><path d="m362.82,147.56c.53-.98,1.25-1.75,2.17-2.29s1.95-.81,3.08-.81,2.08.24,2.91.72,1.43,1.08,1.84,1.81v-2.32h2.14v12.74h-2.14v-2.37c-.42.74-1.04,1.36-1.87,1.85s-1.79.73-2.89.73-2.15-.28-3.07-.84c-.91-.56-1.63-1.34-2.16-2.35s-.79-2.15-.79-3.44.26-2.44.79-3.43Zm9.41.94c-.39-.71-.91-1.26-1.57-1.64-.66-.38-1.38-.57-2.17-.57s-1.51.19-2.16.56c-.65.37-1.17.91-1.56,1.63-.39.71-.58,1.55-.58,2.51s.19,1.82.58,2.54c.39.72.91,1.27,1.56,1.65.65.38,1.37.57,2.16.57s1.51-.19,2.17-.57c.66-.38,1.18-.93,1.57-1.65.39-.72.58-1.56.58-2.52s-.19-1.8-.58-2.51Z" fill="#f4f7fa"/><path d="m380.65,140.2v17.2h-2.12v-17.2h2.12Z" fill="#f4f7fa"/><path d="m384.25,147.56c.53-.98,1.26-1.75,2.2-2.29s2.01-.81,3.22-.81c1.56,0,2.85.38,3.87,1.14,1.01.76,1.68,1.81,2.01,3.16h-2.28c-.22-.77-.64-1.39-1.27-1.83-.63-.45-1.41-.67-2.33-.67-1.21,0-2.18.42-2.93,1.24-.74.83-1.12,2-1.12,3.52s.37,2.72,1.12,3.56c.74.84,1.72,1.25,2.93,1.25.93,0,1.7-.22,2.32-.65.62-.43,1.04-1.05,1.28-1.86h2.28c-.34,1.3-1.02,2.34-2.04,3.13-1.02.78-2.3,1.17-3.83,1.17-1.21,0-2.28-.27-3.22-.81-.94-.54-1.67-1.31-2.2-2.3-.53-.99-.79-2.15-.79-3.49s.26-2.47.79-3.45Z" fill="#f4f7fa"/><path d="m398.35,147.56c.53-.98,1.25-1.75,2.17-2.29s1.95-.81,3.08-.81,2.08.24,2.91.72,1.43,1.08,1.84,1.81v-2.32h2.14v12.74h-2.14v-2.37c-.42.74-1.04,1.36-1.87,1.85s-1.79.73-2.89.73-2.15-.28-3.07-.84c-.91-.56-1.63-1.34-2.16-2.35s-.79-2.15-.79-3.44.26-2.44.79-3.43Zm9.41.94c-.39-.71-.91-1.26-1.57-1.64-.66-.38-1.38-.57-2.17-.57s-1.51.19-2.16.56c-.65.37-1.17.91-1.56,1.63-.39.71-.58,1.55-.58,2.51s.19,1.82.58,2.54c.39.72.91,1.27,1.56,1.65.65.38,1.37.57,2.16.57s1.51-.19,2.17-.57c.66-.38,1.18-.93,1.57-1.65.39-.72.58-1.56.58-2.52s-.19-1.8-.58-2.51Z" fill="#f4f7fa"/><path d="m424.03,145.84c.96.94,1.44,2.29,1.44,4.05v7.51h-2.09v-7.2c0-1.27-.32-2.24-.95-2.92-.64-.67-1.5-1.01-2.6-1.01s-2,.35-2.66,1.05c-.66.7-.99,1.71-.99,3.04v7.04h-2.12v-12.74h2.12v1.81c.42-.65.99-1.15,1.71-1.51s1.51-.54,2.38-.54c1.55,0,2.8.47,3.76,1.41Z" fill="#f4f7fa"/><path d="m431.52,146.41v7.51c0,.62.13,1.06.39,1.31s.72.38,1.37.38h1.56v1.79h-1.91c-1.18,0-2.06-.27-2.65-.81-.59-.54-.88-1.43-.88-2.67v-7.51h-1.65v-1.74h1.65v-3.21h2.12v3.21h3.32v1.74h-3.32Z" fill="#f4f7fa"/><path d="m448.95,151.82h-10.18c.08,1.25.51,2.23,1.29,2.94s1.73,1.06,2.85,1.06c.91,0,1.68-.21,2.29-.64.61-.43,1.04-.99,1.29-1.71h2.28c-.34,1.22-1.02,2.22-2.04,2.99s-2.29,1.15-3.81,1.15c-1.21,0-2.29-.27-3.24-.81-.95-.54-1.7-1.31-2.24-2.31-.54-1-.81-2.16-.81-3.47s.26-2.47.79-3.46c.53-.99,1.27-1.76,2.22-2.29.95-.54,2.05-.8,3.29-.8s2.28.26,3.21.79c.93.53,1.65,1.25,2.15,2.17s.76,1.96.76,3.13c0,.4-.02.83-.07,1.28Zm-2.65-3.8c-.36-.58-.84-1.02-1.45-1.33-.61-.3-1.29-.45-2.03-.45-1.07,0-1.98.34-2.73,1.02-.75.68-1.18,1.63-1.29,2.83h8.04c0-.81-.18-1.5-.54-2.08Z" fill="#f4f7fa"/></g><g><polygon points="449.1 115.07 383.82 115.07 383.82 1.18 449.1 1.18 449.1 20.99 407.63 20.99 407.63 45.75 446.01 45.75 446.01 65.55 407.63 65.55 407.63 95.26 449.1 95.26 449.1 115.07" fill="#e5ea72"/><polygon points="460.86 124.97 395.58 124.97 395.58 11.08 460.86 11.08 460.86 30.89 419.39 30.89 419.39 55.65 457.77 55.65 457.77 75.46 419.39 75.46 419.39 105.16 460.86 105.16 460.86 124.97" fill="#00a2a2"/><g opacity=".81"><polygon points="395.58 11.08 395.58 115.07 449.1 115.07 449.1 105.16 419.39 105.16 419.39 95.26 407.63 95.26 407.63 65.55 446.01 65.55 446.01 55.65 419.39 55.65 419.39 45.75 407.63 45.75 407.63 20.99 449.1 20.99 449.1 11.08 395.58 11.08" fill="#6f695b"/></g></g></g></g></svg>